<?xml version="1.0" standalone="no"?>
<!DOCTYPE svg PUBLIC "-//W3C//DTD SVG 20010904//EN"
 "http://www.w3.org/TR/2001/REC-SVG-20010904/DTD/svg10.dtd">
<svg version="1.0" xmlns="http://www.w3.org/2000/svg"
 width="1765.000000pt" height="1765.000000pt" viewBox="0 0 1765.000000 1765.000000"
 preserveAspectRatio="xMidYMid meet">

<g transform="translate(0.000000,1765.000000) scale(0.100000,-0.100000)"
fill="#000000" stroke="none">
<path d="M9938 12090 c-56 -14 -164 -71 -238 -125 -131 -97 -319 -308 -498
-562 l-65 -93 -83 0 c-45 0 -117 -7 -160 -15 -77 -15 -93 -12 -94 18 0 15
-108 175 -202 300 -142 188 -259 291 -428 377 -220 111 -408 113 -527 5 -91
-81 -154 -224 -189 -420 -23 -131 -23 -471 -1 -673 l17 -144 -55 -136 c-218
-550 -171 -1033 138 -1435 20 -27 37 -54 37 -60 0 -7 -48 -52 -106 -102 -345
-292 -494 -561 -494 -889 0 -166 9 -202 96 -372 l77 -152 -40 -64 c-147 -233
-223 -478 -223 -721 0 -153 19 -267 69 -417 56 -166 59 -176 86 -385 37 -285
61 -347 154 -388 45 -20 47 -20 136 -2 l91 18 64 -32 c85 -41 152 -42 220 -4
l48 27 48 -32 c114 -73 189 -81 286 -32 32 16 63 30 69 30 6 0 63 -53 127
-117 184 -183 462 -357 637 -399 278 -65 611 111 808 428 l42 67 121 1 c116 0
125 2 179 30 l57 30 65 -20 c83 -26 163 -25 233 2 44 16 79 21 177 22 135 1
159 10 197 76 17 29 19 48 16 144 -9 240 -5 304 29 436 52 206 64 320 58 520
-8 244 -50 430 -129 568 -33 58 -142 174 -257 271 l-63 54 4 63 c2 35 6 65 8
68 3 2 69 18 148 35 164 35 225 63 332 153 88 74 155 162 218 286 63 124 97
230 117 373 18 130 34 534 35 874 1 461 37 735 115 860 106 172 129 323 74
501 -24 77 -102 198 -159 247 -76 65 -245 111 -450 123 -140 8 -211 -9 -358
-87 l-112 -59 7 42 c4 24 8 122 8 218 0 200 -15 287 -71 408 -43 94 -134 191
-218 232 -68 34 -164 46 -228 30z m209 -135 c60 -30 112 -86 148 -160 90 -184
99 -550 24 -949 -11 -61 -18 -124 -15 -142 4 -17 25 -81 47 -140 64 -170 80
-258 86 -494 4 -133 1 -237 -6 -295 -14 -107 -68 -275 -117 -364 -136 -248
-404 -439 -729 -521 -108 -28 -265 -49 -265 -36 0 4 11 29 25 56 25 50 30 75
19 104 -12 31 -34 15 -91 -71 -46 -68 -69 -92 -109 -115 -66 -37 -168 -50
-284 -37 -119 13 -179 44 -229 118 -43 63 -56 75 -88 85 -20 7 -23 4 -23 -24
0 -17 7 -47 15 -67 25 -59 25 -59 -82 -52 -202 14 -358 54 -503 131 -222 117
-314 197 -414 358 -139 223 -180 374 -180 660 1 247 30 383 125 586 71 149 70
147 46 261 -18 85 -21 133 -21 358 0 286 12 394 59 522 43 116 138 219 223
243 232 64 547 -135 785 -498 47 -70 101 -160 121 -200 25 -50 45 -76 62 -82
29 -11 210 -13 329 -3 l80 6 23 49 c58 120 206 320 346 467 136 142 258 230
371 268 58 19 157 9 222 -22z m952 -755 c214 -52 317 -150 358 -344 30 -143
-5 -300 -79 -346 -26 -17 -45 -20 -91 -17 -87 5 -89 9 -97 188 -6 142 -8 153
-29 170 -13 11 -30 19 -39 19 -13 0 -14 -13 -7 -102 11 -133 8 -183 -11 -224
-31 -65 -123 -81 -212 -35 -65 33 -66 38 -73 220 -4 91 -7 167 -8 169 -4 8
-37 -1 -53 -15 -21 -19 -23 -58 -8 -151 13 -77 0 -133 -39 -172 -38 -38 -99
-48 -148 -23 -55 26 -80 84 -93 208 -10 98 -25 155 -40 155 -4 0 -10 10 -14
23 -24 97 121 228 306 277 102 26 266 26 377 0z m-195 -795 c74 -22 129 -19
188 11 l51 26 51 -26 c28 -14 60 -26 71 -26 11 0 30 -3 41 -6 l21 -6 -19 -71
c-45 -175 -67 -515 -68 -1062 0 -165 -5 -351 -10 -413 -47 -527 -294 -837
-700 -878 l-66 -6 -12 113 c-29 266 -85 465 -187 678 l-65 133 0 112 c0 61 4
125 9 143 5 17 35 62 67 99 122 145 193 283 230 449 23 104 23 377 0 603 -9
89 -16 165 -16 168 0 2 39 2 88 -2 72 -5 96 -3 137 13 l50 19 45 -28 c25 -16
67 -35 94 -43z m-3207 -1547 c10 -28 28 -57 40 -65 13 -9 27 -32 33 -53 18
-68 52 -242 47 -246 -2 -2 -53 7 -113 22 -139 33 -239 32 -278 -5 -14 -14 -26
-30 -26 -37 0 -19 57 -26 120 -15 76 13 147 -2 255 -53 383 -181 885 -643 885
-814 0 -50 -39 -92 -137 -147 -115 -65 -114 -64 -147 -129 -33 -66 -53 -80
-141 -102 -61 -15 -75 -25 -147 -92 l-80 -75 -56 6 c-187 19 -494 279 -715
604 -130 192 -172 323 -164 513 6 132 29 223 86 346 94 199 283 413 453 509
l43 24 11 -70 c7 -38 20 -93 31 -121z m2297 69 c12 -9 17 -23 14 -42 -2 -25
-8 -31 -32 -33 -31 -4 -46 10 -46 44 0 39 32 55 64 31z m-2066 -19 c7 -7 12
-27 12 -45 0 -31 -2 -33 -33 -33 -57 0 -77 45 -35 74 27 19 40 20 56 4z m1792
-108 c6 -12 10 -33 8 -48 -3 -25 -7 -27 -50 -30 -48 -3 -48 -3 -48 29 0 60 65
95 90 49z m-1474 -25 c15 -23 15 -27 0 -50 -23 -35 -67 -37 -100 -5 -17 16
-18 22 -6 49 11 27 17 31 51 31 30 0 42 -5 55 -25z m2004 -201 c41 -103 86
-266 110 -396 22 -121 46 -407 37 -432 -3 -8 -55 -40 -114 -70 -180 -90 -329
-213 -504 -418 -67 -78 -139 -169 -160 -202 -53 -85 -69 -106 -78 -106 -4 0
-21 21 -38 48 -17 26 -60 81 -96 122 -95 111 -354 379 -409 423 -26 21 -48 42
-48 46 0 5 46 11 103 14 419 27 653 167 861 520 88 149 130 268 172 485 14 75
33 150 41 166 l16 30 38 -77 c22 -42 53 -111 69 -153z m-220 145 c0 -43 -41
-221 -71 -306 -58 -166 -152 -330 -251 -438 -61 -67 -190 -166 -269 -205 -130
-66 -430 -114 -573 -92 -111 18 -146 41 -250 166 -110 131 -303 302 -485 430
-158 111 -175 127 -211 201 -28 56 -69 229 -58 240 3 3 36 -9 74 -26 130 -59
244 -99 436 -155 105 -30 199 -59 208 -64 15 -8 16 -17 3 -102 -8 -51 -12
-115 -9 -141 12 -112 89 -212 206 -270 62 -31 69 -32 190 -32 99 0 135 4 174
19 66 25 128 84 157 149 22 48 24 64 23 213 l0 162 80 22 c103 27 261 90 451
179 83 39 156 71 163 71 6 0 12 -9 12 -21z m-653 3 c8 -5 10 -22 6 -51 -7 -53
-35 -71 -83 -51 -24 10 -30 18 -30 42 0 49 16 68 58 68 20 0 42 -4 49 -8z
m-832 -14 c28 -13 34 -51 11 -81 -12 -15 -18 -16 -52 -5 -32 11 -40 18 -42 41
-6 51 29 70 83 45z m540 -142 c67 -31 100 -57 122 -100 14 -27 14 -31 -2 -42
-31 -23 -151 -44 -246 -44 -96 0 -269 18 -281 29 -13 12 21 84 58 122 52 54
101 69 204 66 68 -2 97 -9 145 -31z m172 -305 c-4 -44 -13 -95 -20 -114 -32
-76 -122 -146 -188 -147 l-27 0 15 68 c15 71 12 134 -7 157 -13 16 -96 21
-116 7 -23 -15 -24 -52 -4 -128 11 -43 20 -81 20 -86 0 -12 -57 -10 -101 3
-90 27 -158 124 -167 238 l-5 64 29 -7 c16 -4 101 -9 189 -12 133 -4 175 -1
250 15 148 31 139 35 132 -58z m1220 -652 c72 -54 193 -178 238 -243 77 -112
114 -273 122 -528 6 -211 -2 -293 -49 -463 -28 -102 -31 -127 -37 -335 -5
-189 -9 -230 -24 -258 -31 -58 -103 -72 -174 -34 -26 14 -30 35 -38 177 -4 61
-13 133 -21 162 -14 51 -15 52 -40 41 -26 -12 -27 -13 -18 -88 13 -119 11
-253 -5 -283 -21 -40 -58 -59 -112 -59 -51 0 -139 35 -140 55 0 7 -6 87 -13
180 -10 132 -16 171 -29 184 -16 16 -18 16 -39 -4 -21 -21 -21 -24 -8 -126 16
-129 10 -208 -17 -245 -46 -62 -137 -95 -206 -75 l-32 9 4 199 c4 237 -4 301
-65 525 -33 122 -61 197 -105 286 -70 141 -73 170 -29 253 110 205 470 553
699 675 36 20 70 36 75 36 5 0 33 -18 63 -41z m-1652 -26 l73 -47 -54 -52
c-42 -41 -54 -59 -54 -83 0 -50 38 -41 111 26 l61 57 24 -29 c13 -17 24 -35
24 -41 0 -6 -20 -30 -45 -53 -31 -29 -45 -50 -45 -68 0 -23 3 -25 33 -19 21 4
46 21 72 50 39 43 41 44 61 28 11 -10 28 -29 38 -43 l17 -27 -48 -23 c-50 -25
-74 -58 -66 -90 8 -30 38 -22 96 25 l55 44 33 -35 c21 -22 29 -37 22 -40 -28
-10 -102 -75 -108 -94 -9 -27 -2 -33 42 -33 30 0 42 7 74 45 l39 44 40 -45
c44 -50 155 -209 149 -214 -2 -2 -27 -15 -55 -29 -64 -32 -81 -51 -64 -72 22
-27 70 -16 117 27 21 20 21 20 52 -3 17 -12 31 -26 31 -31 0 -4 -29 -21 -65
-37 -59 -27 -65 -32 -65 -60 0 -28 3 -31 33 -31 19 0 50 12 77 30 25 16 48 30
52 30 9 0 29 -61 22 -71 -2 -5 -24 -13 -47 -20 -72 -19 -102 -62 -52 -75 13
-3 46 1 72 10 64 22 69 21 82 -16 9 -24 8 -34 -1 -40 -15 -10 -78 -28 -96 -28
-21 0 -32 -43 -16 -60 11 -12 20 -12 47 -2 75 27 117 3 117 -65 0 -31 -2 -33
-35 -33 -52 0 -95 -24 -88 -50 9 -32 33 -39 88 -25 28 7 52 12 54 10 2 -2 6
-24 8 -50 l6 -45 -52 0 c-84 0 -118 -32 -68 -64 17 -12 31 -13 62 -6 74 17 75
17 75 -51 0 -59 -1 -61 -22 -55 -53 16 -98 18 -113 6 -34 -28 -3 -70 51 -70
54 0 74 -15 74 -57 l0 -36 -37 7 c-123 21 -123 21 -123 -7 0 -36 34 -57 92
-57 27 0 48 -4 48 -8 0 -31 -37 -119 -74 -177 l-44 -68 -49 47 c-34 31 -59 46
-77 46 -14 0 -26 -4 -26 -9 0 -23 23 -66 56 -107 34 -41 35 -46 21 -62 -9 -9
-29 -25 -46 -35 l-30 -18 -7 28 c-10 43 -32 73 -54 73 -29 0 -34 -40 -14 -105
l18 -57 -29 -24 c-35 -28 -49 -26 -53 7 -7 60 -25 107 -43 112 -39 10 -51 -57
-24 -133 8 -23 15 -44 15 -45 0 -2 -21 -6 -46 -10 -26 -3 -53 -9 -60 -12 -11
-4 -14 10 -14 68 0 93 -9 109 -44 86 -32 -22 -42 -58 -27 -107 6 -20 11 -40
11 -44 0 -10 -118 -7 -125 4 -4 6 -1 35 5 65 14 68 7 95 -25 95 -21 0 -27 -8
-41 -57 -23 -83 -32 -90 -85 -63 -24 13 -46 24 -48 26 -2 2 8 23 23 48 27 46
32 72 17 95 -16 26 -51 1 -78 -55 -14 -30 -28 -54 -31 -54 -14 0 -102 64 -102
74 0 7 12 23 26 37 34 31 59 88 45 102 -25 25 -85 -22 -130 -101 -5 -9 -19 -2
-52 28 l-44 40 42 39 c39 37 63 84 50 98 -14 13 -65 -12 -103 -52 l-42 -43
-43 44 -44 45 48 43 c52 49 61 81 23 88 -28 6 -48 -4 -94 -44 -18 -15 -36 -28
-40 -28 -5 0 -18 20 -30 45 l-22 45 29 15 c60 31 91 97 51 110 -24 8 -55 -8
-97 -48 -32 -30 -33 -30 -47 -11 -33 43 -42 67 -28 72 32 10 97 70 97 88 0 30
-35 28 -98 -5 l-57 -30 -22 31 c-15 22 -18 33 -10 36 32 10 107 69 110 86 9
45 -45 43 -116 -6 -48 -33 -46 -33 -77 24 -14 26 -14 28 7 42 13 8 35 18 50
21 28 7 61 38 71 68 10 28 -68 23 -122 -8 -55 -32 -67 -31 -86 5 -26 50 -20
65 40 99 61 34 74 53 55 76 -17 20 -43 19 -90 -5 -56 -29 -76 -26 -89 11 -16
45 -15 46 32 53 54 9 83 28 91 62 12 47 -36 58 -104 24 -55 -28 -65 -25 -78
19 -16 51 -17 48 21 56 60 12 87 27 93 52 10 40 -33 55 -91 33 -35 -13 -65 3
-65 35 0 22 5 25 60 31 68 7 93 27 79 62 -8 20 -15 22 -78 22 -62 0 -69 2 -74
22 -4 12 -5 23 -3 25 1 2 32 6 67 9 115 10 127 17 92 56 -10 11 -30 18 -54 18
-50 0 -85 14 -99 41 -26 48 26 44 120 -9 110 -61 216 -75 288 -38 15 8 55 39
89 69 41 37 79 61 115 72 87 28 136 62 173 118 43 68 77 99 150 135 33 16 73
42 88 56 36 34 67 101 67 149 0 20 2 37 5 37 3 0 39 -21 80 -47z m-1497 -158
c45 -55 118 -136 162 -180 l79 -80 -1 -185 c-1 -265 33 -418 143 -650 60 -126
110 -207 249 -405 108 -155 159 -240 149 -250 -4 -3 -35 -10 -69 -16 -96 -15
-164 2 -215 55 -59 61 -72 106 -103 366 -6 45 -10 55 -26 55 -42 0 -44 -113
-6 -299 11 -54 20 -104 20 -111 0 -7 -22 -18 -50 -25 -150 -36 -230 72 -230
310 0 67 -4 92 -16 104 -8 9 -20 16 -25 16 -34 0 -44 -199 -15 -308 21 -84 21
-89 -14 -107 -46 -24 -103 -19 -139 10 -46 39 -69 116 -96 328 -26 203 -36
248 -78 365 -84 231 -90 525 -16 753 49 150 166 363 198 357 8 -2 53 -48 99
-103z"/>
<path d="M9913 11921 c-177 -64 -287 -165 -484 -446 -113 -161 -151 -238 -147
-296 5 -66 31 -79 173 -90 219 -16 338 -62 528 -204 176 -131 237 -141 280
-48 21 46 22 63 25 388 4 393 -5 503 -45 578 -65 118 -197 165 -330 118z"/>
<path d="M7820 11863 c-71 -26 -141 -103 -178 -198 -42 -111 -55 -189 -55
-340 1 -160 29 -367 74 -537 17 -67 63 -49 243 96 132 105 237 165 336 191 54
14 92 16 221 12 133 -5 159 -4 178 10 19 13 22 22 18 50 -24 145 -332 534
-524 663 -103 69 -213 88 -313 53z"/>
<path d="M8113 10355 c-64 -18 -153 -62 -255 -127 l-78 -50 -72 7 c-81 6 -104
-2 -94 -33 5 -14 19 -24 42 -28 46 -9 52 -21 20 -50 -29 -27 -36 -74 -11 -74
24 0 84 33 201 110 301 199 444 199 630 2 82 -86 82 -86 107 -69 84 55 -1 167
-198 261 -138 67 -195 77 -292 51z"/>
<path d="M9553 10315 c-179 -49 -339 -156 -331 -222 5 -44 31 -51 75 -20 21
15 67 47 103 72 117 81 257 111 383 81 91 -21 133 -44 219 -121 77 -68 171
-125 208 -125 18 0 21 5 18 32 -2 24 -12 38 -35 53 -41 25 -41 32 0 43 26 7
33 14 35 39 4 36 -20 47 -71 32 -59 -17 -87 -11 -136 30 -63 53 -116 78 -213
101 -96 23 -181 25 -255 5z"/>
<path d="M8845 9836 c-77 -24 -85 -32 -85 -84 0 -72 17 -117 66 -178 56 -69
66 -93 66 -176 1 -110 -53 -168 -155 -168 -43 0 -45 1 -66 45 -18 39 -25 45
-51 45 -28 0 -30 -3 -30 -37 0 -115 152 -181 274 -119 l48 24 55 -29 c97 -51
194 -35 280 47 50 48 63 87 38 114 -27 30 -40 25 -75 -30 -61 -94 -139 -114
-194 -49 -29 34 -41 75 -51 167 -6 62 -6 63 33 110 93 112 124 190 102 257 -9
29 -22 41 -54 56 -48 22 -141 24 -201 5z"/>
<path d="M7501 9820 c-23 -14 -7 -44 40 -76 93 -62 348 -125 514 -128 93 -1
100 0 103 19 5 39 -12 47 -99 50 -91 2 -234 35 -366 84 -120 44 -179 60 -192
51z"/>
<path d="M10250 9774 c-137 -74 -300 -120 -488 -139 -39 -4 -74 -11 -77 -15
-3 -5 0 -21 5 -36 l11 -27 92 6 c164 11 459 97 527 154 23 19 30 33 30 59 0
44 -16 44 -100 -2z"/>
<path d="M9490 9690 c-12 -28 -11 -34 9 -53 20 -20 23 -21 49 -7 27 16 41 55
25 70 -4 4 -22 11 -39 14 -28 6 -32 4 -44 -24z"/>
<path d="M8311 9663 c-13 -46 -8 -53 39 -53 45 0 61 19 53 63 -5 24 -10 27
-44 27 -35 0 -39 -3 -48 -37z"/>
<path d="M7564 9635 c-9 -23 9 -39 83 -73 127 -58 315 -93 416 -78 40 6 44 9
40 29 -11 41 -23 47 -98 47 -92 0 -213 23 -320 61 -95 33 -113 35 -121 14z"/>
<path d="M8460 9621 c-22 -54 26 -90 82 -60 15 8 18 17 13 37 -10 39 -24 52
-55 52 -21 0 -30 -7 -40 -29z"/>
<path d="M9346 9617 c-14 -10 -17 -21 -13 -38 11 -39 20 -47 54 -42 28 4 33
10 39 40 7 40 8 39 -31 47 -19 4 -37 2 -49 -7z"/>
<path d="M10142 9590 c-86 -30 -366 -90 -417 -90 -12 0 -4 -28 13 -43 37 -34
73 -31 291 23 227 56 261 72 261 121 0 38 -8 37 -148 -11z"/>
<path d="M9526 9524 c-10 -37 17 -74 52 -74 53 0 72 55 30 84 -36 26 -75 21
-82 -10z"/>
<path d="M8283 9514 c-10 -26 19 -69 48 -72 32 -4 51 18 47 55 -3 25 -7 28
-46 31 -32 2 -44 -1 -49 -14z"/>
<path d="M8433 9473 c-19 -7 -16 -58 5 -76 38 -35 82 -12 82 43 0 28 -51 48
-87 33z"/>
<path d="M7690 9447 c0 -45 21 -58 120 -73 100 -15 226 -18 279 -8 27 6 31 11
31 39 0 19 -6 35 -12 38 -7 2 -60 2 -118 0 -74 -4 -127 0 -180 11 -104 22
-120 21 -120 -7z"/>
<path d="M9424 9442 c-6 -4 -14 -24 -17 -44 l-6 -38 43 0 c41 0 44 2 50 31 3
18 1 38 -5 45 -12 15 -47 18 -65 6z"/>
<path d="M8940 9001 c-68 -5 -85 -9 -88 -22 -4 -23 23 -47 67 -59 47 -12 93
-4 120 22 26 24 29 69 4 66 -10 -1 -56 -4 -103 -7z"/>
<path d="M8495 7108 c-11 -6 -45 -34 -75 -61 -30 -27 -68 -56 -85 -64 -29 -14
-35 -13 -73 6 -86 44 -99 24 -117 -179 -9 -98 -21 -171 -35 -206 -25 -67 -25
-64 4 -64 27 0 47 16 73 60 34 58 52 51 105 -45 37 -66 60 -77 102 -49 45 29
35 69 -40 161 -52 64 -62 102 -38 141 19 34 53 55 108 71 l39 10 -7 -112 c-10
-163 8 -196 88 -157 51 25 212 159 237 197 37 55 16 137 -44 173 -64 40 -97
17 -77 -54 6 -24 9 -54 5 -65 -7 -23 -81 -78 -91 -68 -4 3 1 57 11 119 14 96
15 119 3 153 -11 34 -18 40 -43 42 -16 2 -39 -2 -50 -9z"/>
<path d="M9271 6973 c-16 -15 -31 -37 -33 -48 -3 -17 3 -20 38 -23 33 -2 45 2
68 24 36 37 32 68 -11 72 -23 2 -39 -4 -62 -25z"/>
<path d="M8857 6756 c-48 -18 -116 -62 -286 -189 -203 -150 -261 -210 -245
-252 4 -9 19 -15 40 -15 25 0 45 11 85 46 65 58 99 72 116 48 34 -47 29 -209
-12 -329 -28 -83 -27 -105 3 -105 45 0 115 119 157 267 34 119 44 140 73 163
29 24 90 27 98 5 3 -8 -1 -44 -9 -80 -13 -58 -13 -67 0 -80 18 -18 25 -19 67
-1 48 20 69 72 70 171 1 94 -15 140 -56 161 -39 20 -74 12 -170 -39 -42 -23
-80 -38 -84 -34 -15 15 21 58 82 98 81 52 146 122 142 152 -4 27 -22 30 -71
13z"/>
<path d="M9130 6247 c-60 -25 -92 -45 -273 -175 -65 -47 -123 -94 -128 -104
-6 -10 -9 -33 -7 -51 3 -29 6 -32 42 -35 27 -2 47 3 65 16 14 10 40 26 58 35
80 42 61 0 -34 -73 -82 -63 -113 -98 -113 -127 0 -29 110 -164 152 -187 85
-46 115 12 53 102 -19 29 -38 65 -41 81 -6 27 -2 31 57 64 94 53 93 52 112 12
24 -50 22 -54 -23 -61 -22 -4 -48 -12 -57 -19 -17 -13 -17 -15 3 -42 17 -22
30 -29 67 -31 124 -8 279 140 253 243 -6 24 -10 26 -53 23 -45 -3 -47 -4 -61
-46 -14 -42 -15 -43 -33 -26 -12 11 -19 30 -19 55 0 35 5 41 57 78 31 23 61
41 66 41 29 0 79 -57 111 -125 40 -83 47 -90 75 -75 42 22 45 95 8 166 -23 44
-130 140 -172 154 -47 16 -70 9 -128 -39 -54 -45 -84 -58 -99 -43 -16 16 4 41
62 81 59 40 97 96 78 118 -13 17 -13 17 -78 -10z"/>
<path d="M9530 5680 c-23 -43 24 -80 101 -80 59 0 47 45 -21 80 -49 25 -67 25
-80 0z"/>
</g>
</svg>
