<svg version="1.0" xmlns="http://www.w3.org/2000/svg" width="2141.333" height="1096" viewBox="0 0 1606 822"><path d="M611.5.6C601 1.7 587.7 4.4 579.8 7c-28.5 9.5-49 28.9-54.3 51.1-1.9 8.3-1.9 22.9 0 30.4 5.1 19.3 21.6 35.2 44.7 43.1 15.2 5.1 48.4 10 84.8 12.4 28.2 1.9 37.5 3.7 50.6 10 18.8 9 28.4 23.9 27.1 42-1.6 23.6-19.6 41.4-50.4 49.7-9.2 2.5-11.1 2.7-32.3 2.7-21.2 0-23.2-.1-34.4-2.8-28.5-6.7-54-19-83.2-40.1-1.6-1.1-.4-2.6-11.2 13.6l-9.1 13.7 9.2 6.4c39 27.4 78.7 39.9 127.2 40.1 20.4 0 30.5-1 45.5-4.8 30.2-7.6 54.9-25.5 66.4-48.3 6.6-13 8.9-34.8 5.2-49.2-6.9-27.3-30.2-48.8-62.7-57.5-12-3.2-26.3-5.1-53.6-7-58.8-4.1-80.4-10.9-88.8-28-2.8-5.6-2.8-19.3 0-25 5.3-11 20.7-21.1 39-25.7 7.9-2 11.4-2.3 28.5-2.2 16.4 0 21.2.4 30 2.3 25 5.3 45.9 14.7 67.8 30.4 4.6 3.3 8.7 5.6 9.1 5.1 1-1.2 16.6-23.5 17.5-25.1 1-1.7-18.2-14.1-33.9-21.8-20.7-10.3-40.7-16.7-62.3-20.1C646.5.9 619.1-.2 611.5.6zM0 139.5V273h33V156.1l69.3-.4c78-.4 75.6-.2 92.2-8.2 19.1-9.3 31.7-24.3 37.7-45 2-6.9 2.3-10.2 2.3-24.5-.1-15.5-.2-17-2.9-24.5-3.8-11.1-8.4-18.1-17-26.3-5.7-5.4-9.7-8.2-16.8-11.5C177.9 6.2 175.7 6 79.8 6H0v133.5zM161.6 37c24.5 3.2 38 17.3 39.2 40.9 1 20.1-5.7 33.5-20.6 41-11.6 5.9-14.7 6.1-84.2 6.1H33V36h60.8c33.4 0 63.9.5 67.8 1zM336 10c-4.3 8.4-128 262.2-128 262.6 0 .2 7.8.4 17.3.4l17.2-.1L260 237l17.5-35.9 73.7-.1h73.6l18.4 36 18.3 36h17.3c9.4 0 17.2-.3 17.2-.8 0-.4-29.5-60.3-65.5-133.2L365.1 6.5l-13.5-.3-13.5-.3L336 10zm45.1 100.6c15.9 32.2 28.9 58.8 28.9 59 0 .2-26.3.4-58.5.4s-58.5-.2-58.5-.4c0-1 58-117.6 58.5-117.6.4 0 13.7 26.4 29.6 58.6zM861.5 112.2c-28.5 58.5-57.8 118.6-65.1 133.6L783.1 273l17.4-.2 17.5-.3 17.5-35.5 17.5-35.5 73.7-.2 73.8-.3 18.1 35.8 18.1 35.7 17.6.3 17.6.2-7.2-14.9c-4-8.2-33.5-68.3-65.7-133.5L940.5 6.1 926.9 6h-13.6l-51.8 106.2zm95.2-1.2 29.2 59H868.1l28.6-57.8c15.6-31.7 28.7-58.3 29-59 .3-.6.8-1.2 1.2-1.2.4 0 13.8 26.5 29.8 59zM1268 96.7c0 93.1-.3 102.5-4 116.1-2.6 9.5-5.2 14.4-10.6 20.2-12.2 13.1-42.9 18.7-81 14.9-27.1-2.7-43.8-10.5-51.7-24.1-4.9-8.2-5.7-14-5.7-41V158h-33.2l.4 28.2c.5 32.3 1.4 37.8 8 51.8 7.2 15 21 26.5 40.1 33.2 18.8 6.7 47.8 9.7 75.7 7.8 52-3.4 77.7-18.4 88.9-51.7 5-14.8 5.1-17.9 5.1-123.1V6h-32v90.7zM1378 139.5V273h219v-30l-93.2-.2-93.3-.3-.3-48.8-.2-48.7h107v-30h-107l.2-39.3.3-39.2 88.3-.3 88.2-.2V6h-209v133.5z"/></svg>